<svg xmlns="http://www.w3.org/2000/svg" width="24" height="24" viewBox="0 0 24 24">
  <g>
    <path d="M18.017,9.508a.483.483,0,0,0-.138-.168,13.756,13.756,0,0,0-2.146-1.257c-.374-.187-.713-.34-1.018-.477-1.31-.588-1.7-.766-1.7-2.083l-.031-2.1a.5.5,0,0,0-.853-.346c-.194.194-.358.39-.519.585a2.442,2.442,0,0,0-2.1-1.62.478.478,0,0,0-.359.143A.5.5,0,0,0,9,2.541V5.5c0,1.31-.4,1.487-1.7,2.076-.3.137-.645.29-1.019.477-1.793.9-4.249,2.124-4.249,5.5,0,2.86,1.678,5.8,4.528,6.326-.147.539-.364.965-.5,1a.5.5,0,0,0,0,1c.925,0,1.337-1.171,1.506-1.905h.954a1.98,1.98,0,0,1-.32,1.184.5.5,0,0,0,.662.749,2.771,2.771,0,0,0,.659-1.929l.992.006v1.548a.5.5,0,0,0,1,0v-.908A6.5,6.5,0,1,0,18.017,9.508ZM3.027,13.552c0-2.553,1.6-3.558,3.7-4.605.36-.18.687-.327.981-.459C9.037,7.889,10,7.457,10,5.5V3.193a1.913,1.913,0,0,1,.867,1.527,6.544,6.544,0,0,0-.881,2.522.5.5,0,0,0,1,.071A5.816,5.816,0,0,1,12,4.787l.011.743c0,1.957.963,2.389,2.3,2.988.294.132.621.279.981.46l.058.03a6.483,6.483,0,0,0-5.33,9.963H9.75c-.43,0-1.25-2.11-1.25-5.418a8.421,8.421,0,0,1,.645-3.667.5.5,0,0,0-.9-.432,9.37,9.37,0,0,0-.742,4.1,13.408,13.408,0,0,0,.943,5.412C6.63,18.9,5.51,16.128,5.51,13.552A5.479,5.479,0,0,1,6.043,11a.5.5,0,0,0-.889-.458,6.442,6.442,0,0,0-.644,3.007,8.42,8.42,0,0,0,1.6,5.172C4.156,18,3.027,15.745,3.027,13.552ZM15.5,21A5.5,5.5,0,1,1,21,15.5,5.506,5.506,0,0,1,15.5,21Z"/>
    <path d="M15.5,11A4.5,4.5,0,1,0,20,15.5,4.505,4.505,0,0,0,15.5,11Zm0,8A3.5,3.5,0,1,1,19,15.5,3.5,3.5,0,0,1,15.5,19Z"/>
    <path d="M15.5,13A2.5,2.5,0,1,0,18,15.5,2.5,2.5,0,0,0,15.5,13Zm0,4A1.5,1.5,0,1,1,17,15.5,1.5,1.5,0,0,1,15.5,17Z"/>
  </g>
</svg>
