<svg xmlns="http://www.w3.org/2000/svg" viewBox="0 0 48 48"><title>26-setting</title><g id="_26-setting" data-name="26-setting"><path d="M45,40H3a3,3,0,0,1-3-3V11A3,3,0,0,1,3,8H6v2H3a1,1,0,0,0-1,1V37a1,1,0,0,0,1,1H45a1,1,0,0,0,1-1V11a1,1,0,0,0-1-1H42V8h3a3,3,0,0,1,3,3V37A3,3,0,0,1,45,40Z"/><rect x="15" y="39" width="2" height="4"/><path d="M13,47H11V45a3,3,0,0,1,3-3H24v2H14a1,1,0,0,0-1,1Z"/><rect x="31" y="39" width="2" height="4"/><path d="M37,47H35V45a1,1,0,0,0-1-1H29V42h5a3,3,0,0,1,3,3Z"/><rect x="9" y="46" width="30" height="2"/><path d="M40,36H8a3,3,0,0,1-3-3V3A3,3,0,0,1,8,0H40a3,3,0,0,1,3,3V33A3,3,0,0,1,40,36ZM8,2A1,1,0,0,0,7,3V33a1,1,0,0,0,1,1H40a1,1,0,0,0,1-1V3a1,1,0,0,0-1-1Z"/><rect x="1" y="30" width="5" height="2"/><rect x="42" y="30" width="5" height="2"/><path d="M25,32H23a3,3,0,0,1-2.984-2.688,11.809,11.809,0,0,1-1.2-.5,3,3,0,0,1-4.008-.211l-1.414-1.414a3,3,0,0,1-.212-4.007,11.975,11.975,0,0,1-.494-1.2A3,3,0,0,1,10,19V17a3,3,0,0,1,2.688-2.983,11.975,11.975,0,0,1,.494-1.2,3,3,0,0,1,.212-4.007l1.414-1.414a3,3,0,0,1,4.008-.211,11.809,11.809,0,0,1,1.2-.5A3,3,0,0,1,23,4h2a3,3,0,0,1,2.984,2.688,11.809,11.809,0,0,1,1.2.5,3,3,0,0,1,4.008.211l1.414,1.414a3,3,0,0,1,.212,4.007,11.975,11.975,0,0,1,.494,1.2A3,3,0,0,1,38,17v2a3,3,0,0,1-2.688,2.983,11.975,11.975,0,0,1-.494,1.2,3,3,0,0,1-.212,4.007l-1.414,1.414a3,3,0,0,1-4.008.211,11.809,11.809,0,0,1-1.2.5A3,3,0,0,1,25,32Zm-6.359-5.4a1,1,0,0,1,.488.127,9.939,9.939,0,0,0,2.144.884,1,1,0,0,1,.727.962V29a1,1,0,0,0,1,1h2a1,1,0,0,0,1-1v-.425a1,1,0,0,1,.727-.962,9.939,9.939,0,0,0,2.144-.884,1,1,0,0,1,1.2.167l.3.3a1,1,0,0,0,1.414,0l1.414-1.414a1,1,0,0,0,0-1.413l-.3-.3a1,1,0,0,1-.166-1.194,9.973,9.973,0,0,0,.884-2.143A1,1,0,0,1,34.575,20H35a1,1,0,0,0,1-1V17a1,1,0,0,0-1-1h-.425a1,1,0,0,1-.962-.728,9.973,9.973,0,0,0-.884-2.143,1,1,0,0,1,.166-1.194l.3-.3a1,1,0,0,0,0-1.415L31.778,8.808a1,1,0,0,0-1.414,0l-.3.3a1,1,0,0,1-1.2.167,9.939,9.939,0,0,0-2.144-.884A1,1,0,0,1,26,7.425V7a1,1,0,0,0-1-1H23a1,1,0,0,0-1,1v.425a1,1,0,0,1-.727.962,9.939,9.939,0,0,0-2.144.884,1,1,0,0,1-1.2-.167l-.3-.3a1,1,0,0,0-1.414,0l-1.414,1.414a1,1,0,0,0,0,1.413l.3.3a1,1,0,0,1,.166,1.194,9.973,9.973,0,0,0-.884,2.143,1,1,0,0,1-.962.728H13a1,1,0,0,0-1,1v2a1,1,0,0,0,1,1h.425a1,1,0,0,1,.962.728,9.973,9.973,0,0,0,.884,2.143,1,1,0,0,1-.166,1.194l-.3.3a1,1,0,0,0,0,1.415l1.414,1.414a1,1,0,0,0,1.414,0l.3-.3A1,1,0,0,1,18.641,26.6Z"/><path d="M24,24a6,6,0,1,1,6-6A6.006,6.006,0,0,1,24,24Zm0-10a4,4,0,1,0,4,4A4,4,0,0,0,24,14Z"/><rect x="9" y="30" width="2" height="2"/><rect x="13" y="30" width="2" height="2"/><rect x="33" y="30" width="2" height="2"/><rect x="37" y="30" width="2" height="2"/><rect x="9" y="4" width="2" height="2"/><rect x="37" y="4" width="2" height="2"/></g></svg>