<?xml version="1.0" encoding="UTF-8"?>
<svg viewBox="0 0 24 24" xmlns="http://www.w3.org/2000/svg" fill="currentColor" aria-hidden="true">
  <path d="M19.14 12.94c.04-.3.06-.61.06-.94s-.02-.64-.06-.94l2.03-1.58a.5.5 0 0 0 .12-.63l-1.92-3.32a.5.5 0 0 0-.6-.22l-2.39.96a7.07 7.07 0 0 0-1.62-.94l-.36-2.54A.5.5 0 0 0 13.5 2h-3a.5.5 0 0 0-.5.42l-.36 2.54c-.57.22-1.1.52-1.6.88l-2.4-.96a.5.5 0 0 0-.6.22L2.7 8.5a.5.5 0 0 0 .12.63L4.85 10.7c-.05.31-.08.63-.08.95 0 .32.03.64.08.95L2.8 14.2a.5.5 0 0 0-.12.63l1.92 3.32c.14.24.44.34.7.24l2.4-.96c.5.36 1.03.66 1.6.88l.36 2.54c.05.28.29.49.57.49h3c.28 0 .52-.21.57-.49l.36-2.54c.58-.22 1.12-.52 1.62-.88l2.39.96c.26.1.56 0 .7-.24l1.92-3.32a.5.5 0 0 0-.12-.63l-2.03-1.58zM12 15.5A3.5 3.5 0 1 1 12 8.5a3.5 3.5 0 0 1 0 7z"/>
</svg>